<svg id="plutchiksWheel" viewBox="0 0 200 200" width="80%">
  <path d="M141.04 10.6L142.43 12.16L143.75 13.78L145 15.44L146.19 17.15L147.31 18.89L148.36 20.68L149.34 22.5L150.25 24.35L151.09 26.24L151.86 28.16L152.55 30.1L153.16 32.07L153.7 34.06L154.17 36.07L154.55 38.1L154.86 40.15L155.09 42.21L155.24 44.29L155.3 46.37L155.29 48.46L155.19 50.55L155 52.65L154.74 54.74L154.38 56.84L153.94 58.93L153.41 61.01L152.79 63.09L152.08 65.15L151.28 67.2L150.39 69.22L149.44 71.18L148.41 73.08L147.31 74.93L146.14 76.72L144.91 78.45L143.62 80.13L142.27 81.74L140.86 83.29L139.39 84.78L137.87 86.2L136.3 87.56L134.69 88.86L133.02 90.09L131.31 91.25L129.56 92.35L127.77 93.37L125.94 94.33L124.08 95.22L122.18 96.03L120.26 96.77L118.3 97.44L116.32 98.04L114.31 98.55L112.29 99L110.24 99.36L108.18 99.65L106.1 99.86L104.01 99.99L101.92 100.03L99.81 100L99.81 100L98.29 98.53L96.84 97.02L95.46 95.45L94.14 93.83L92.88 92.17L91.69 90.47L90.57 88.72L89.52 86.94L88.54 85.11L87.63 83.26L86.79 81.37L86.03 79.46L85.34 77.51L84.72 75.54L84.18 73.55L83.72 71.54L83.33 69.51L83.02 67.46L82.79 65.4L82.65 63.33L82.58 61.24L82.6 59.16L82.7 57.06L82.88 54.97L83.15 52.87L83.5 50.78L83.95 48.69L84.48 46.6L85.1 44.53L85.81 42.46L86.61 40.41L87.49 38.4L88.45 36.43L89.48 34.53L90.58 32.68L91.74 30.89L92.97 29.16L94.26 27.49L95.61 25.87L97.02 24.32L98.49 22.83L100.01 21.41L101.58 20.05L103.2 18.75L104.86 17.52L106.57 16.36L108.32 15.26L110.11 14.24L111.94 13.28L113.81 12.4L115.7 11.58L117.63 10.84L119.58 10.17L121.56 9.58L123.57 9.06L125.6 8.62L127.64 8.25L129.7 7.96L131.78 7.75L133.87 7.63L135.97 7.58L138.08 7.61L138.08 7.61L139.59 9.08L141.04 10.6Z" id="petal0" class="petal"></path><path d="M102.96 102.98L104.35 104.55L105.67 106.17L106.93 107.83L108.12 109.53L109.24 111.28L110.29 113.06L111.27 114.89L112.18 116.74L113.01 118.63L113.78 120.54L114.47 122.49L115.09 124.46L115.63 126.45L116.09 128.46L116.48 130.49L116.79 132.54L117.01 134.6L117.16 136.67L117.23 138.76L117.21 140.84L117.11 142.94L116.93 145.03L116.66 147.13L116.3 149.22L115.86 151.31L115.33 153.4L114.71 155.47L114 157.54L113.2 159.59L112.32 161.6L111.36 163.57L110.33 165.47L109.23 167.32L108.07 169.11L106.84 170.84L105.55 172.51L104.19 174.13L102.78 175.68L101.32 177.17L99.8 178.59L98.23 179.95L96.61 181.25L94.94 182.48L93.24 183.64L91.48 184.74L89.69 185.76L87.87 186.72L86 187.6L84.11 188.42L82.18 189.16L80.22 189.83L78.24 190.42L76.24 190.94L74.21 191.38L72.17 191.75L70.1 192.04L68.03 192.25L65.94 192.37L63.84 192.42L61.73 192.39L61.73 192.39L60.22 190.92L58.77 189.4L57.38 187.84L56.06 186.22L54.8 184.56L53.62 182.85L52.5 181.11L51.45 179.32L50.47 177.5L49.56 175.65L48.72 173.76L47.95 171.84L47.26 169.9L46.65 167.93L46.1 165.94L45.64 163.93L45.25 161.9L44.95 159.85L44.72 157.79L44.57 155.71L44.5 153.63L44.52 151.54L44.62 149.45L44.8 147.35L45.07 145.26L45.43 143.16L45.87 141.07L46.4 138.99L47.02 136.91L47.73 134.85L48.53 132.8L49.41 130.78L50.37 128.82L51.4 126.92L52.5 125.07L53.66 123.28L54.89 121.55L56.19 119.87L57.54 118.26L58.95 116.71L60.41 115.22L61.93 113.8L63.5 112.44L65.12 111.14L66.79 109.91L68.5 108.75L70.25 107.65L72.04 106.63L73.87 105.67L75.73 104.78L77.63 103.97L79.55 103.23L81.51 102.56L83.49 101.96L85.49 101.45L87.52 101L89.56 100.64L91.63 100.35L93.7 100.14L95.79 100.01L97.89 99.97L100 100L100 100L101.51 101.47L102.96 102.98Z" id="petal4" class="petal"></path><path d="M103.05 97.51L104.62 96.12L106.24 94.8L107.9 93.55L109.6 92.36L111.35 91.24L113.13 90.19L114.95 89.21L116.81 88.3L118.7 87.46L120.61 86.7L122.56 86L124.53 85.39L126.52 84.85L128.53 84.38L130.56 84L132.61 83.69L134.67 83.46L136.74 83.31L138.82 83.25L140.91 83.26L143.01 83.36L145.1 83.55L147.2 83.82L149.29 84.17L151.38 84.61L153.47 85.14L155.54 85.76L157.61 86.47L159.66 87.27L161.67 88.16L163.63 89.11L165.54 90.14L167.39 91.24L169.18 92.41L170.91 93.64L172.58 94.93L174.19 96.28L175.75 97.69L177.23 99.16L178.66 100.68L180.02 102.25L181.32 103.87L182.55 105.53L183.71 107.24L184.8 108.99L185.83 110.78L186.79 112.61L187.67 114.47L188.49 116.37L189.23 118.3L189.9 120.25L190.49 122.23L191.01 124.24L191.45 126.26L191.82 128.31L192.11 130.37L192.31 132.45L192.44 134.54L192.49 136.64L192.46 138.74L192.46 138.74L190.99 140.26L189.47 141.71L187.9 143.09L186.29 144.42L184.63 145.67L182.92 146.86L181.18 147.98L179.39 149.03L177.57 150.01L175.72 150.92L173.83 151.76L171.91 152.52L169.97 153.21L168 153.83L166.01 154.37L163.99 154.83L161.96 155.22L159.92 155.53L157.86 155.76L155.78 155.9L153.7 155.97L151.61 155.95L149.52 155.86L147.42 155.67L145.33 155.4L143.23 155.05L141.14 154.6L139.06 154.07L136.98 153.45L134.92 152.75L132.87 151.94L130.85 151.06L128.89 150.1L126.99 149.07L125.14 147.98L123.35 146.81L121.61 145.58L119.94 144.29L118.33 142.94L116.78 141.53L115.29 140.06L113.87 138.54L112.5 136.97L111.21 135.35L109.98 133.69L108.82 131.98L107.72 130.23L106.69 128.44L105.74 126.61L104.85 124.75L104.04 122.85L103.3 120.92L102.63 118.97L102.03 116.99L101.51 114.98L101.07 112.96L100.71 110.91L100.42 108.85L100.21 106.77L100.08 104.68L100.03 102.58L100.07 100.48L100.07 100.47L101.53 98.96L103.05 97.51Z" id="petal2" class="petal"></path><path d="M50.55 44.62L52.65 44.8L54.74 45.07L56.84 45.43L58.93 45.87L61.01 46.4L63.09 47.02L65.15 47.73L67.2 48.53L69.22 49.41L71.18 50.37L73.08 51.4L74.93 52.5L76.72 53.66L78.45 54.89L80.13 56.19L81.74 57.54L83.29 58.95L84.78 60.41L86.2 61.93L87.56 63.5L88.86 65.12L90.09 66.79L91.25 68.5L92.35 70.25L93.37 72.04L94.33 73.87L95.22 75.73L96.03 77.63L96.77 79.55L97.44 81.51L98.04 83.49L98.55 85.49L99 87.52L99.36 89.56L99.65 91.63L99.86 93.7L99.99 95.79L100.03 97.89L100 100L100 100L98.53 101.51L97.02 102.96L95.45 104.35L93.83 105.67L92.17 106.93L90.47 108.12L88.72 109.24L86.94 110.29L85.11 111.27L83.26 112.18L81.37 113.01L79.46 113.78L77.51 114.47L75.54 115.09L73.55 115.63L71.54 116.09L69.51 116.48L67.46 116.79L65.4 117.01L63.33 117.16L61.24 117.23L59.16 117.21L57.06 117.11L54.97 116.93L52.87 116.66L50.78 116.3L48.69 115.86L46.6 115.33L44.53 114.71L42.46 114L40.41 113.2L38.4 112.32L36.43 111.36L34.53 110.33L32.68 109.23L30.89 108.07L29.16 106.84L27.49 105.55L25.87 104.19L24.32 102.78L22.83 101.32L21.41 99.8L20.05 98.23L18.75 96.61L17.52 94.94L16.36 93.24L15.26 91.48L14.24 89.69L13.28 87.87L12.4 86L11.58 84.11L10.84 82.18L10.17 80.22L9.58 78.24L9.06 76.24L8.62 74.21L8.25 72.17L7.96 70.1L7.75 68.03L7.63 65.94L7.58 63.84L7.61 61.73L7.61 61.73L9.08 60.22L10.6 58.77L12.16 57.38L13.78 56.06L15.44 54.8L17.15 53.62L18.89 52.5L20.68 51.45L22.5 50.47L24.35 49.56L26.24 48.72L28.16 47.95L30.1 47.26L32.07 46.65L34.06 46.1L36.07 45.64L38.1 45.25L40.15 44.95L42.21 44.72L44.29 44.57L46.37 44.5L48.46 44.52L50.55 44.62Z" id="petal6" class="petal"></path><path d="M106.1 99.68L108.18 99.89L110.24 100.17L112.29 100.54L114.31 100.98L116.32 101.5L118.3 102.09L120.26 102.76L122.18 103.51L124.08 104.32L125.94 105.21L127.77 106.16L129.56 107.19L131.31 108.28L133.02 109.45L134.69 110.68L136.3 111.97L137.87 113.33L139.39 114.76L140.86 116.25L142.27 117.8L143.62 119.41L144.91 121.08L146.14 122.81L147.31 124.6L148.41 126.45L149.44 128.36L150.39 130.32L151.28 132.34L152.08 134.39L152.79 136.45L153.41 138.53L153.94 140.61L154.38 142.7L154.74 144.79L155 146.89L155.19 148.99L155.29 151.08L155.3 153.17L155.24 155.25L155.09 157.32L154.86 159.38L154.55 161.43L154.17 163.46L153.7 165.47L153.16 167.47L152.55 169.44L151.86 171.38L151.09 173.3L150.25 175.18L149.34 177.04L148.36 178.86L147.31 180.64L146.19 182.39L145 184.09L143.75 185.76L142.43 187.37L141.04 188.94L139.59 190.46L138.08 191.92L138.08 191.92L135.97 191.96L133.87 191.91L131.78 191.78L129.7 191.57L127.64 191.29L125.6 190.92L123.57 190.48L121.56 189.96L119.58 189.36L117.63 188.7L115.7 187.95L113.81 187.14L111.94 186.25L110.11 185.3L108.32 184.27L106.57 183.18L104.86 182.01L103.2 180.78L101.58 179.49L100.01 178.13L98.49 176.7L97.02 175.21L95.61 173.66L94.26 172.05L92.97 170.38L91.74 168.65L90.58 166.85L89.48 165.01L88.45 163.1L87.49 161.14L86.61 159.12L85.81 157.07L85.1 155.01L84.48 152.93L83.95 150.85L83.5 148.76L83.15 146.67L82.88 144.57L82.7 142.47L82.6 140.38L82.58 138.29L82.65 136.21L82.79 134.14L83.02 132.08L83.33 130.03L83.72 128L84.18 125.98L84.72 123.99L85.34 122.02L86.03 120.08L86.79 118.16L87.63 116.28L88.54 114.42L89.52 112.6L90.57 110.82L91.69 109.07L92.88 107.37L94.14 105.7L95.46 104.09L96.84 102.52L98.29 101L99.81 99.54L99.81 99.54L101.92 99.5L104.01 99.55L106.1 99.68Z" id="petal3" class="petal"></path><path d="M65.94 7.63L68.03 7.75L70.1 7.96L72.17 8.25L74.21 8.62L76.24 9.06L78.24 9.58L80.22 10.17L82.18 10.84L84.11 11.58L86 12.4L87.87 13.28L89.69 14.24L91.48 15.26L93.24 16.36L94.94 17.52L96.61 18.75L98.23 20.05L99.8 21.41L101.32 22.83L102.78 24.32L104.19 25.87L105.55 27.49L106.84 29.16L108.07 30.89L109.23 32.68L110.33 34.53L111.36 36.43L112.32 38.4L113.2 40.41L114 42.46L114.71 44.53L115.33 46.6L115.86 48.69L116.3 50.78L116.66 52.87L116.93 54.97L117.11 57.06L117.21 59.16L117.23 61.24L117.16 63.33L117.01 65.4L116.79 67.46L116.48 69.51L116.09 71.54L115.63 73.55L115.09 75.54L114.47 77.51L113.78 79.46L113.01 81.37L112.18 83.26L111.27 85.11L110.29 86.94L109.24 88.72L108.12 90.47L106.93 92.17L105.67 93.83L104.35 95.45L102.96 97.02L101.51 98.53L100 100L100 100L97.89 100.03L95.79 99.99L93.7 99.86L91.63 99.65L89.56 99.36L87.52 99L85.49 98.55L83.49 98.04L81.51 97.44L79.55 96.77L77.63 96.03L75.73 95.22L73.87 94.33L72.04 93.37L70.25 92.35L68.5 91.25L66.79 90.09L65.12 88.86L63.5 87.56L61.93 86.2L60.41 84.78L58.95 83.29L57.54 81.74L56.19 80.13L54.89 78.45L53.66 76.72L52.5 74.93L51.4 73.08L50.37 71.18L49.41 69.22L48.53 67.2L47.73 65.15L47.02 63.09L46.4 61.01L45.87 58.93L45.43 56.84L45.07 54.74L44.8 52.65L44.62 50.55L44.52 48.46L44.5 46.37L44.57 44.29L44.72 42.21L44.95 40.15L45.25 38.1L45.64 36.07L46.1 34.06L46.65 32.07L47.26 30.1L47.95 28.16L48.72 26.24L49.56 24.35L50.47 22.5L51.45 20.68L52.5 18.89L53.62 17.15L54.8 15.44L56.06 13.78L57.38 12.16L58.77 10.6L60.22 9.08L61.73 7.61L61.73 7.61L63.84 7.58L65.94 7.63Z" id="petal7" class="petal"></path><path d="M65.24 83.26L67.31 83.46L69.36 83.73L71.4 84.08L73.42 84.51L75.42 85.01L77.4 85.6L79.35 86.25L81.28 86.98L83.19 87.79L85.06 88.67L86.89 89.62L88.7 90.63L90.46 91.72L92.19 92.88L93.87 94.11L95.51 95.4L97.1 96.76L98.64 98.18L100.14 99.67L100.14 99.67L100.21 101.78L100.2 103.88L100.1 105.97L99.93 108.05L99.68 110.12L99.35 112.17L98.94 114.2L98.46 116.21L97.9 118.21L97.27 120.17L96.56 122.11L95.78 124.02L94.92 125.9L94 127.74L93 129.55L91.94 131.32L90.81 133.05L89.61 134.74L88.34 136.38L87.01 137.97L85.61 139.52L84.14 141.01L82.62 142.45L81.03 143.83L79.38 145.15L77.67 146.41L75.9 147.6L74.07 148.73L72.18 149.8L70.24 150.79L68.24 151.71L66.2 152.54L64.15 153.29L62.09 153.94L60.01 154.51L57.93 154.99L55.84 155.38L53.75 155.69L51.66 155.91L49.57 156.04L47.48 156.1L45.4 156.07L43.32 155.95L41.26 155.76L39.21 155.49L37.17 155.14L35.15 154.71L33.15 154.2L31.17 153.62L29.21 152.97L27.28 152.23L25.38 151.43L23.51 150.55L21.67 149.6L19.87 148.58L18.1 147.49L16.38 146.34L14.7 145.11L13.06 143.82L11.47 142.46L9.92 141.04L8.43 139.55L8.43 139.55L8.36 137.44L8.37 135.34L8.46 133.25L8.63 131.17L8.89 129.1L9.22 127.05L9.62 125.02L10.11 123L10.67 121.01L11.3 119.05L12.01 117.11L12.79 115.2L13.64 113.32L14.57 111.47L15.56 109.67L16.63 107.9L17.76 106.17L18.96 104.48L20.23 102.84L21.56 101.24L22.96 99.7L24.42 98.21L25.95 96.77L27.54 95.39L29.19 94.07L30.9 92.81L32.67 91.62L34.5 90.48L36.38 89.42L38.33 88.43L40.33 87.51L42.36 86.68L44.41 85.93L46.48 85.27L48.55 84.71L50.63 84.23L52.72 83.84L54.81 83.53L56.91 83.31L59 83.18L61.09 83.12L63.17 83.15L65.24 83.26Z" id="petal5" class="petal"></path><path d="M191.9 64L191.81 66.09L191.64 68.17L191.39 70.24L191.06 72.29L190.65 74.33L190.17 76.34L189.61 78.33L188.97 80.3L188.26 82.24L187.48 84.15L186.63 86.03L185.7 87.87L184.71 89.68L183.65 91.45L182.51 93.18L181.31 94.86L180.04 96.51L178.71 98.1L177.31 99.64L175.85 101.13L174.32 102.57L172.74 103.95L171.09 105.27L169.38 106.53L167.61 107.73L165.78 108.86L163.89 109.92L161.95 110.91L159.95 111.83L157.91 112.67L155.86 113.41L153.79 114.07L151.72 114.64L149.64 115.11L147.55 115.51L145.46 115.81L143.37 116.03L141.27 116.17L139.19 116.22L137.1 116.19L135.03 116.08L132.96 115.89L130.91 115.61L128.87 115.26L126.85 114.83L124.85 114.33L122.87 113.75L120.92 113.09L118.99 112.36L117.09 111.55L115.22 110.68L113.38 109.73L111.58 108.71L109.81 107.62L108.09 106.46L106.4 105.24L104.76 103.94L103.17 102.58L101.63 101.16L100.14 99.67L100.14 99.67L100.07 97.57L100.08 95.47L100.17 93.37L100.34 91.29L100.59 89.23L100.92 87.18L101.33 85.14L101.81 83.13L102.37 81.14L103.01 79.17L103.71 77.23L104.5 75.32L105.35 73.44L106.27 71.6L107.27 69.79L108.33 68.02L109.47 66.29L110.67 64.6L111.93 62.96L113.27 61.37L114.67 59.83L116.13 58.33L117.65 56.9L119.24 55.52L120.89 54.2L122.6 52.94L124.37 51.74L126.2 50.61L128.09 49.55L130.03 48.56L132.03 47.64L134.07 46.8L136.12 46.06L138.18 45.4L140.26 44.83L142.34 44.35L144.43 43.96L146.52 43.66L148.61 43.44L150.7 43.3L152.79 43.25L154.87 43.28L156.95 43.39L159.01 43.58L161.07 43.85L163.1 44.2L165.12 44.63L167.13 45.14L169.1 45.72L171.06 46.38L172.99 47.11L174.89 47.91L176.76 48.79L178.6 49.74L180.4 50.76L182.17 51.85L183.89 53.01L185.58 54.23L187.21 55.53L188.81 56.88L190.35 58.31L191.84 59.8L191.84 59.8L191.91 61.9L191.9 64Z" id="petal1" class="petal"></path>
</svg>